<svg viewBox="0 0 24 24" class="help">
    <g fill="none" stroke-linecap="round" stroke-linejoin="round" stroke-width="2">
        <path shape-rendering="geometricPrecision" d="M12 21v0c-4.971 0-9-4.029-9-9v0c0-4.971 4.029-9 9-9v0c4.971 0 9 4.029 9 9v0c0 4.971-4.029 9-9 9z" />
        <path shape-rendering="geometricPrecision" d="M12 13.25V13c0-.817.505-1.26 1.011-1.6.494-.333.989-.767.989-1.567 0-1.105-.895-2-2-2s-2 .895-2 2M11.999 16c-.138 0-.25.112-.249.25 0 .138.112.25.25.25s.25-.112.25-.25-.112-.25-.251-.25" />
    </g>
</svg>