<svg xmlns="http://www.w3.org/2000/svg" viewBox="0 0 24 24" class="icon">
    <g fill="none" stroke-linecap="round" stroke-linejoin="round" stroke-width="2">
        <path
            d="M6.488 15.581c.782.781.782 2.048 0 2.829-.782.781-2.049.781-2.83 0-.782-.781-.782-2.048 0-2.829.781-.781 2.048-.781 2.83 0M13.415 3.586c.782.781.782 2.048 0 2.829-.782.781-2.049.781-2.83 0-.782-.781-.782-2.048 0-2.829.781-.781 2.049-.781 2.83 0M20.343 15.58c.782.781.782 2.048 0 2.829-.782.781-2.049.781-2.83 0-.782-.781-.782-2.048 0-2.829.781-.781 2.048-.781 2.83 0" />
        <path
            d="M17.721 18.581C16.269 20.071 14.246 21 12 21c-1.146 0-2.231-.246-3.215-.68M4.293 15.152c-.56-1.999-.352-4.21.769-6.151.574-.995 1.334-1.814 2.205-2.449M13.975 5.254c2.017.512 3.834 1.799 4.957 3.743.569.985.899 2.041 1.018 3.103" />
    </g>
</svg>